<?xml version="1.0" encoding="UTF-8"?>
<!-- Created with Inkscape (http://www.inkscape.org/) -->
<svg width="55.272mm" height="8.4883mm" version="1.1" viewBox="0 0 55.272 8.4883" xmlns="http://www.w3.org/2000/svg">
 <g transform="translate(-37.266 -23.832)">
  <g stroke-width=".26458">
   <path d="m38.266 27.587c0 2.1343 1.2107 2.8716 1.9325 2.8716v-0.13194c-0.31044-0.10089-0.37253-0.27164-0.38029-0.62865v-4.0513c0.0078-0.35701 0.08537-0.52776 0.34149-0.62865v-0.1397c-0.81492 0.08537-1.8937 1.0477-1.8937 2.7086zm4.2531 0.13194c0-2.1343-1.3815-2.8328-1.9558-2.8328v0.13194c0.31044 0.10089 0.38029 0.30268 0.38029 0.65969v4.0125c0 0.35701-0.10866 0.52-0.34925 0.63641v0.13194c0.67522 0 1.9248-0.98566 1.9248-2.7397z" style="white-space:pre"/>
   <path d="m44.196 28.876c-0.48895 0-0.82268 0.38805-0.82268 0.83044 0 0.49671 0.45014 0.75283 0.75283 0.76059 0 0 0.0388 0.05433 0.0388 0.13194 0 0.17851-0.13194 0.48119-0.64417 0.5976l0.03104 0.12418s0.15522-0.01553 0.25612-0.03881c0.68298-0.16298 1.2263-0.78387 1.2263-1.4436 0-0.59761-0.38806-0.96238-0.8382-0.96238z" style="white-space:pre"/>
   <path d="m45.655 29.698c0 0.4579 0.36477 0.82268 0.82268 0.82268s0.82268-0.36477 0.82268-0.82268c0-0.45791-0.36477-0.82268-0.82268-0.82268s-0.82268 0.36477-0.82268 0.82268z" style="white-space:pre"/>
   <path d="m48.775 24.832v5.4483h-0.66746v0.1785h2.8716v-0.1785h-0.65969v-5.4483zm-0.38806 0.62089-0.54328 0.99342 0.14746 0.08537 0.42686-0.77611v-0.2794z" style="white-space:pre"/>
   <path d="m53.4 24.871c-1.1642 0.07761-1.6376 0.97014-1.6376 1.3815 0 1.1254 0.89253 1.366 1.366 1.366 0.32597 0 0.48119-0.06209 0.75283-0.15522l-0.0388-0.1009c-0.06985 0.02328-0.13194 0.03881-0.18627 0.03881-0.49671 0-0.52776-0.89253-0.52776-1.8006 0-0.13194 0.0078-0.52776 0.2794-0.58985zm0.37253 0v0.1397c0.4191 0 0.56656 0.38806 0.56656 1.2107 0 1.3427-0.03881 1.8471-0.44238 2.4137h0.14746c0.93909-0.76835 1.8937-1.1176 1.8937-2.1421 0-0.62089-0.53552-1.6221-2.1653-1.6221zm2.0412 3.5235h-0.15522v0.44238h-2.0101l-1.9325 1.5445 0.01552 0.07761h4.0823z" style="white-space:pre"/>
   <path d="m57.475 24.887v1.9558h0.15522v-0.45014h2.437l1.2263-1.5057zm2.1576 1.7462-0.89253 1.071 0.11642 0.10866 0.97014-1.1797zm-0.2794 0.80716-0.06985 0.12418 0.0078 0.03881s0.08537-0.02328 0.1397-0.02328c0.32597 0 0.33373 0.4579 0.33373 1.0866 0 1.6531-0.2794 1.6531-0.58208 1.6531v0.1397s0.1397 0.02328 0.23283 0.02328c0.86148 0 1.886-0.60537 1.886-1.6454 0-0.82268-0.71402-1.4358-1.5367-1.4358-0.16298 0-0.41134 0.03881-0.41134 0.03881zm-1.4901 0.74506c-0.48895 0-0.8382 0.44238-0.8382 0.93133 0 0.79939 0.75283 1.3427 1.5522 1.3427 0.1009 0 0.25612-0.02328 0.25612-0.02328v-0.12418c-0.5976 0-0.76835-0.35701-0.76835-0.51223 0-0.03881 0.01552-0.06209 0.01552-0.06209 0.09313 0 0.58984-0.27164 0.58984-0.71402 0-0.45014-0.35701-0.8382-0.80716-0.8382z" style="white-space:pre"/>
   <path d="m64.281 24.832v5.4483h-0.65193v0.1785h2.7707v-0.1785h-0.52775v-1.2263h0.80715v-2.1188h-0.17074v0.63641h-0.63641v-2.7397zm-1.1797 2.4059h0.16298l0.81492-1.5522-0.02328-0.20955-0.02328-0.0078zm0.92357 0.33373h-1.0866l-0.78387 1.4824h1.8704z" style="white-space:pre"/>
   <path d="m69.73 25.236s-0.06985 0.08537-0.06985 0.14746c0.06985 0.30268 0.48895 0.8382 1.0322 0.8382 0.41134 0 0.74507-0.33373 0.74507-0.74507 0-0.34925-0.28716-0.63641-0.63641-0.63641-0.29492 0-0.48119 0.20955-0.48119 0.47343 0 0.25612 0.27164 0.35701 0.27164 0.42686 0 0.08537-0.1397 0.1009-0.24059 0.1009-0.25612 0-0.48895-0.24836-0.62089-0.60537zm-0.84596-0.08537c-0.46567 0-0.56656-0.25611-0.64417-0.25611-0.04657 0-0.06209 0.03104-0.06209 0.03104 0 0.15522 0.4191 1.7773 0.64417 2.7397h0.14746c0.24059-1.2107 0.62089-2.6 0.62089-2.7474 0 0-0.02328-0.03104-0.06985-0.03104-0.07761 0-0.17075 0.26388-0.63641 0.26388zm0.34925 2.274s-0.0078 0.02328-0.0078 0.06209c0 0.0388 0.0078 0.08537 0.03881 0.08537 0.09313-0.06209 0.42686-0.24059 0.72178-0.24059 0.53552 0 0.55104 0.46567 0.55104 1.1642 0 1.4746-0.03105 1.7695-0.51999 1.8471l0.0078 0.1397c1.1331-0.06985 2.08-0.71402 2.08-1.6919 0-0.94685-0.84596-1.6454-1.7695-1.6454-0.5976 0-0.92357 0.17851-1.1021 0.2794zm-0.62865 0.79163c-0.48895 0-0.8382 0.44238-0.8382 0.93133 0 0.79939 0.75283 1.3349 1.5522 1.3349 0.10089 0 0.35701-0.01553 0.35701-0.01553l-0.0078-0.1397c-0.25612 0-0.45014-0.0388-0.57432-0.12418-0.18627-0.12418-0.24835-0.33373-0.24835-0.41134 0-0.0078 0.01553-0.02328 0.01553-0.02328 0.18626-0.06985 0.58208-0.27164 0.58208-0.71402 0-0.45014-0.38805-0.8382-0.8382-0.8382z" style="white-space:pre"/>
   <path d="m75.426 24.894 0.0078 0.10865s0.41134 0.05433 0.41134 0.35701c0 0-0.37253 0.16298-0.37253 0.5588 0 0.34925 0.30268 0.68298 0.68298 0.68298 0.40358 0 0.69074-0.31044 0.69074-0.74507 0-0.54328-0.58208-0.98566-1.2185-0.98566-0.08537 0-0.20179 0.02328-0.20179 0.02328zm-0.36477 5.588s0.03105-0.04657 0.03105-0.13194c-0.18627-0.04657-0.31045-0.26388-0.34925-0.5976-0.03105-0.29492-0.03105-1.4358-0.03105-3.5779 0-0.38029 0.0078-1.0322 0.45015-1.1797l-0.01553-0.12418c-1.1719 0.20955-2.0334 1.7385-2.0334 2.8949 0 1.428 0.72955 2.631 1.948 2.7164zm0.19403-2.8095 0.0388 0.09313s0.16298-0.09313 0.2794-0.09313c0.24836 0 0.25612 0.18627 0.25612 1.2573 0 0.99342 0 1.3815-0.39582 1.428l0.01553 0.12418c1.0788 0 1.8704-0.61313 1.8704-1.5677 0-0.79163-0.58984-1.4591-1.3815-1.4591-0.2794 0-0.54328 0.12418-0.68298 0.21731z" style="white-space:pre"/>
   <path d="m78.166 24.856v1.9403h0.15522v-0.43462h3.1821l0.77611-1.5057zm3.0967 1.9403c-0.06985-0.02328-0.17075-0.05433-0.17075-0.05433-0.86924 1.6764-1.5677 3.5623-2.9958 3.5623v0.15522h2.9182v-0.15522c-0.62089 0-0.78387-0.24835-0.78387-0.65193 0-0.48119 0.53551-1.8161 1.0322-2.8561z" style="white-space:pre"/>
   <path d="m84.359 24.863c-1.0089 0-1.5833 0.58984-1.5833 1.0788 0 1.1098 1.591 1.4048 1.591 1.4048l0.03881-0.14746c-0.3182-0.16298-0.34149-0.2794-0.34149-1.2961 0-0.50447 0.03104-0.89253 0.30268-0.89253zm0.30268 0.01553v0.14746c0.14746 0.03104 0.21731 0.13194 0.24059 0.45791 0.01553 0.24059 0.02328 0.58984 0.02328 1.1021 0 0.21731-0.08537 0.46567-0.10865 0.54328 0.01553 0.02328 0.08537 0.02328 0.18626 0.02328 0.33373 0 1.234-0.18627 1.234-1.1254 0-0.2406-0.17851-0.85372-0.85372-1.0633-0.19403-0.06209-0.43462-0.08537-0.72178-0.08537zm0.05433 5.6035c0.59761 0 1.9558-0.52775 1.9558-1.5988 0-0.95461-1.071-1.4358-1.7385-1.5212-0.1785-0.02328-0.28716-0.07761-0.28716-0.07761l-0.06209 0.15522c0.56656 0.17074 0.61313 0.31044 0.61313 1.8083 0 0.85372-0.14746 1.0322-0.49671 1.0866zm-0.38805 0 0.0078-0.16298c-0.17851-0.0388-0.37253-0.05433-0.37253-0.66745 0-1.6376 0.0078-1.8627 0.20179-2.1265 0 0-0.13194-0.02328-0.25612-0.02328-0.41134 0-1.5134 0.39582-1.5134 1.366 0 0.68298 0.67521 1.4901 1.9325 1.6143z" style="white-space:pre"/>
   <path d="m89.226 24.848c-1.1098 0-1.8549 0.6985-1.8549 1.6454 0 0.6985 0.62089 1.397 1.4436 1.397 0.36477 0 0.65193-0.20179 0.65193-0.20179l-0.05433-0.12418s-0.18627 0.11642-0.29492 0.11642c-0.22507 0-0.27164-0.10089-0.27164-1.7618 0-0.65193 0.11641-0.88477 0.38805-0.94685zm2.3128 2.631c0-1.3194-0.74507-2.6155-1.917-2.6155l-0.01553 0.15522c0.34149 0.09313 0.35701 0.67521 0.35701 2.4525 0 2.5612-0.07761 2.763-0.51999 2.8716l0.02328 0.1397c0.46567 0 2.0722-1.0245 2.0722-3.0035zm-3.0889 1.2961c-0.37253 0-0.70626 0.31045-0.70626 0.68298 0 0.41134 0.31044 1.0322 1.428 1.0322l0.01553-0.1397s-0.19403-0.0078-0.30268-0.09313c-0.13194-0.10866-0.16298-0.20179-0.16298-0.26388 0-0.02328 0.01553-0.03104 0.01553-0.03104 0.1397-0.05433 0.33373-0.21731 0.33373-0.55104 0-0.35701-0.2794-0.63641-0.62089-0.63641z" style="white-space:pre"/>
  </g>
  <g fill="#000000" letter-spacing="0px" word-spacing="0px">
   <text x="171.8548" y="73.845398" font-family="sans-serif" font-size="10.583px" stroke-width=".26458" style="line-height:1.25" xml:space="preserve"><tspan x="171.8548" y="73.845398" stroke-width=".26458"/></text>
   <text transform="scale(.26458)" font-family="sans-serif" font-size="40px" style="line-height:1.25;shape-inside:url(#rect17435);white-space:pre" xml:space="preserve"/>
   <text transform="matrix(.26458 0 0 .26458 32.885 187.34)" font-family="One-Oh-One" font-size="29.333px" style="font-variant-caps:normal;font-variant-east-asian:normal;font-variant-ligatures:normal;font-variant-numeric:normal;line-height:1.25;shape-inside:url(#rect27137);white-space:pre" xml:space="preserve"/>
  </g>
 </g>
</svg>
